<mxfile host="app.diagrams.net" modified="2023-10-04T23:36:47.032Z" agent="Mozilla/5.0 (Macintosh; Intel Mac OS X 10_15_7) AppleWebKit/537.36 (KHTML, like Gecko) Chrome/117.0.0.0 Safari/537.36" version="22.0.2" etag="NN6a-lRuvBl5eNMacnb-" type="github">
  <diagram name="Page-1" id="VzIOBd8R7KNviNQQiuK0">
    <mxGraphModel>
      <root>
        <mxCell id="0" />
        <mxCell id="1" parent="0" />
      </root>
    </mxGraphModel>
  </diagram>
</mxfile>
